<svg width="139" height="41" viewBox="0 0 139 41" fill="none" xmlns="http://www.w3.org/2000/svg">
<path d="M18.1754 0.365089C14.6543 0.692158 10.9899 2.14351 7.99089 4.38187C6.128 5.76168 3.99899 8.14312 2.86283 10.0851C0.918053 13.4171 0.00708008 16.7184 0.00708008 20.4899C0.00708008 23.6583 0.621219 26.4077 1.95185 29.1673C4.3777 34.1755 8.47197 37.8039 13.7843 39.6334C15.6267 40.2773 18.3494 40.7271 20.2737 40.7271C22.157 40.7168 24.849 40.2569 26.63 39.6436C29.7417 38.5807 32.3722 36.9249 34.6036 34.6355C36.3948 32.7957 37.3672 31.4363 38.401 29.3309C42.874 20.1628 39.7828 9.07322 31.2156 3.52332C27.3875 1.04988 22.7916 -0.0641823 18.1754 0.365089ZM23.4979 2.85897C25.4222 3.20647 28.063 4.249 29.7417 5.31196C33.232 7.52988 35.8012 10.7392 37.1625 14.6129C39.6702 21.7164 37.3672 29.709 31.4408 34.4515C28.1551 37.0782 24.4498 38.3763 20.2225 38.3763C16.2306 38.3763 12.6379 37.2009 9.45459 34.8399C8.34914 34.012 6.43507 32.07 5.60598 30.9151C4.16276 28.8914 2.94471 25.9784 2.52505 23.5561C1.35819 16.8512 4.2037 9.91132 9.72072 5.96609C12.3001 4.12635 14.8078 3.16559 18.2777 2.66477C19.0045 2.56256 22.6176 2.69543 23.4979 2.85897Z" fill="currentColor"/>
<path d="M13.1847 7.34708C12.5911 7.56172 12.0179 7.98077 11.6801 8.45093C11.0557 9.30947 11.0557 9.27881 11.0864 16.5151L11.1171 23.0973L11.3526 23.6084C11.6392 24.2216 12.0793 24.702 12.7037 25.07L13.1643 25.3459L20.0119 25.3766C27.6989 25.4072 27.443 25.4277 28.3028 24.6713C28.5587 24.4465 28.8862 24.007 29.05 23.6799L29.3366 23.0973V16.3005V9.50367L29.05 8.92109C28.7429 8.29762 28.2926 7.8479 27.617 7.49017L27.1871 7.25509L20.3804 7.23465C14.8327 7.21421 13.502 7.23465 13.1847 7.34708ZM26.7982 9.69787L27.0848 9.94317L27.1155 16.0143C27.1359 19.3463 27.1155 22.2286 27.0848 22.4125C27.0541 22.5863 26.921 22.8316 26.8084 22.944C26.5934 23.1484 26.4399 23.1484 20.2064 23.1484C14.0241 23.1484 13.8193 23.1382 13.6351 22.9542C13.5225 22.8418 13.3997 22.5965 13.369 22.4125C13.3383 22.2286 13.3178 19.3463 13.3383 16.0143L13.369 9.94317L13.6556 9.69787L13.9422 9.45257H20.2269H26.5116L26.7982 9.69787Z" fill="currentColor"/>
<path d="M6.47834 23.4738C6.50905 27.787 6.50905 27.7972 6.7547 28.2571C7.06177 28.8499 7.62473 29.4427 8.14675 29.7187C8.53571 29.9333 8.69948 29.9436 12.4253 29.9947L16.3046 30.0458L16.5502 30.332C16.7856 30.6079 16.7959 30.6795 16.7959 32.2024V33.7764H17.932H19.0682L19.0273 31.906C18.9965 30.2706 18.9658 29.9844 18.7816 29.5756C18.4643 28.901 18.0139 28.4411 17.3384 28.0936L16.7447 27.7972L12.937 27.7461C9.45691 27.695 9.1089 27.6745 8.94513 27.511C8.77113 27.3475 8.76089 27.0102 8.73018 23.2489L8.69948 19.1606H7.57355H6.44763L6.47834 23.4738Z" fill="currentColor"/>
<path d="M31.6421 23.2285V27.3066L31.4067 27.5212C31.1815 27.7359 31.0894 27.7359 27.4455 27.7665L23.7095 27.7972L23.126 28.0834C22.5017 28.39 22.0513 28.8397 21.6931 29.5143C21.4781 29.9027 21.4576 30.1071 21.4269 31.8549L21.386 33.7764H22.5221H23.6583V32.2024C23.6583 30.6795 23.6685 30.6079 23.904 30.332L24.1496 30.0458L27.9777 29.9947C31.7035 29.9436 31.8059 29.9333 32.2767 29.7085C32.8499 29.4223 33.4231 28.8091 33.7302 28.1651C33.9349 27.7154 33.9451 27.5417 33.9758 23.4227L34.0065 19.1606H32.8294H31.6421V23.2285Z" fill="currentColor"/>
<path d="M53.5408 12.057C50.9307 12.6396 48.9348 14.4793 48.3206 16.8506C48.0647 17.842 48.0443 19.4569 48.2695 20.3359C49.3647 24.649 54.1038 26.6523 58.7201 24.7615C59.0681 24.6184 59.5901 24.3424 59.8767 24.1584L60.3987 23.8109V21.1842V18.5472H59.2216H58.0445V20.6323V22.7173L57.5634 22.9217C55.4037 23.8416 52.7015 23.2181 51.4527 21.5317C50.7874 20.6118 50.6339 20.0906 50.6237 18.6494C50.6237 17.4229 50.6339 17.3412 50.9512 16.687C51.7496 14.9904 53.3156 14.0501 55.3321 14.0501C55.7824 14.0501 56.3454 14.1012 56.5808 14.1523C57.2154 14.2954 58.065 14.7246 58.5461 15.1437L58.9657 15.5014L59.3547 15.1948C59.5594 15.021 59.9176 14.694 60.1428 14.4589L60.5522 14.0296L60.0609 13.5901C59.4161 12.9973 58.6894 12.5987 57.6863 12.2614C57.0005 12.0264 56.6422 11.9753 55.5368 11.9446C54.6156 11.9139 54.0014 11.9548 53.5408 12.057Z" fill="currentColor"/>
<path d="M88.1464 17.6501C88.1772 23.1796 88.1772 23.2 88.4126 23.6702C88.7094 24.2732 89.2519 24.8149 89.8558 25.1113C90.3164 25.3362 90.4188 25.3464 93.9398 25.3771L97.553 25.4077L97.5223 24.3039L97.4916 23.2L94.1036 23.1694C90.8077 23.1489 90.7054 23.1387 90.5211 22.9343C90.3369 22.7299 90.3266 22.4539 90.2959 17.415L90.2652 12.1104H89.1905H88.126L88.1464 17.6501Z" fill="currentColor"/>
<path d="M66.925 15.1859C65.5432 15.3698 64.1204 16.259 63.3834 17.4038C62.4315 18.896 62.3496 21.1344 63.1787 22.7493C63.4653 23.3114 64.3968 24.2824 65.0314 24.6503C65.9219 25.192 67.0887 25.4373 68.4399 25.3658C70.0264 25.284 71.1318 24.8854 71.8688 24.1188L72.2066 23.7713L71.6129 23.107C70.9885 22.4018 70.8555 22.3302 70.6303 22.6062C70.3949 22.8923 69.3304 23.3318 68.706 23.4034C68.0611 23.4749 66.9762 23.3216 66.5156 23.0865C65.8298 22.7288 65.1952 21.9725 64.97 21.2264L64.8983 21.0015H68.8902H72.8924V20.3576C72.8821 18.8449 72.3703 17.506 71.4082 16.5452C70.2925 15.4209 68.7367 14.9508 66.925 15.1859ZM69.1563 17.2913C69.8728 17.6695 70.4256 18.3748 70.5893 19.1311L70.661 19.4684H67.7745H64.8881L64.9597 19.1822C65.1747 18.2828 65.8707 17.4753 66.6896 17.1789C67.2935 16.9541 68.6241 17.0154 69.1563 17.2913Z" fill="currentColor"/>
<path d="M80.0473 15.1768C79.1772 15.3097 78.3789 15.647 77.8568 16.1069L77.386 16.526V15.8514V15.1666L76.2908 15.1973L75.1853 15.2279L75.1546 20.2566L75.1342 25.2954H76.301H77.4679L77.5088 22.2496C77.5395 19.4287 77.5498 19.1834 77.7545 18.7541C78.2151 17.7627 78.9213 17.2721 80.0268 17.1596C81.1937 17.037 82.0432 17.4765 82.4834 18.4373C82.7495 19.0096 82.7597 19.0198 82.7904 22.1474L82.8314 25.2954H83.9471H85.0627V21.9736C85.0627 18.4781 85.0116 17.9262 84.5919 17.1188C83.8549 15.6674 81.992 14.8804 80.0473 15.1768Z" fill="currentColor"/>
<path d="M102.297 15.1745C101.151 15.2972 99.9223 15.7162 99.257 16.2171C99.083 16.3397 99.0932 16.3908 99.4003 16.9632C99.5743 17.3005 99.7892 17.6786 99.8711 17.8115L100.014 18.0466L100.27 17.8422C100.67 17.5253 101.529 17.2494 102.451 17.1165C103.843 16.9325 104.897 17.3107 105.327 18.1386C105.439 18.3634 105.531 18.7212 105.531 18.9562V19.3651H104.283C102.737 19.3651 101.376 19.5082 100.721 19.7228C100.117 19.9272 99.3593 20.5711 99.0523 21.1435C98.7452 21.7159 98.735 23.0037 99.0318 23.6067C99.3389 24.2404 100.014 24.823 100.741 25.0989C101.294 25.3034 101.57 25.3442 102.614 25.3442C103.74 25.3442 103.894 25.3238 104.446 25.0581C104.774 24.9047 105.204 24.6186 105.388 24.4141L105.736 24.0564V24.6697V25.2931H106.811H107.886V21.8896C107.886 20.0294 107.834 18.3021 107.783 18.0568C107.456 16.6463 106.494 15.6856 105.071 15.3381C104.252 15.1439 103.187 15.0826 102.297 15.1745ZM105.531 21.6136C105.531 22.5642 105.204 23.0446 104.252 23.4636C103.228 23.9235 101.724 23.6885 101.284 23.0037C101.048 22.6459 101.058 21.9612 101.304 21.6239C101.703 21.0822 102.051 21.0004 103.873 21.0004H105.531V21.6136Z" fill="currentColor"/>
<path d="M125.086 15.1747C123.295 15.3996 121.882 16.4012 121.145 17.9548C120.367 19.5901 120.48 21.6036 121.411 23.0652C122.374 24.5574 124.052 25.3955 126.11 25.3955C127.717 25.3955 129.119 24.9151 129.897 24.1179L130.235 23.7704L129.651 23.0958C129.324 22.7279 129.027 22.4315 128.986 22.4315C128.945 22.4315 128.73 22.5643 128.505 22.7177C127.665 23.3309 126.601 23.5558 125.495 23.3513C124.718 23.2083 124.39 23.0549 123.848 22.5643C123.428 22.1862 123.182 21.7978 123.029 21.2867L122.947 21.0006H126.939H130.92V20.3055C130.92 18.8133 130.398 17.505 129.446 16.5443C128.351 15.4609 126.765 14.9601 125.086 15.1747ZM127.154 17.2597C127.686 17.5153 128.136 17.9956 128.423 18.5987C128.863 19.5288 129.057 19.4674 125.803 19.4674H122.937L122.998 19.1813C123.203 18.2818 123.888 17.4744 124.718 17.178C125.291 16.9633 126.652 17.0144 127.154 17.2597Z" fill="currentColor"/>
<path d="M138.104 15.1865C137.265 15.2888 136.405 15.6976 135.862 16.2291L135.422 16.6481V15.9122V15.1661L134.327 15.1968L133.222 15.2274L133.191 20.2561L133.17 25.2949H134.337H135.504L135.545 22.3513C135.576 19.5406 135.586 19.3975 135.811 18.9069C136.292 17.8746 136.999 17.4147 138.196 17.3431L139.005 17.292V16.1882C139.005 15.3603 138.974 15.0741 138.882 15.0843C138.81 15.0946 138.462 15.1354 138.104 15.1865Z" fill="currentColor"/>
<path d="M109.221 15.2686C109.221 15.3299 110.194 17.6091 111.381 20.3381C112.968 23.9971 113.51 25.3565 113.469 25.5303C113.428 25.6529 113.254 25.98 113.08 26.2559C112.507 27.1656 111.463 27.3905 110.409 26.8385L109.835 26.5319L109.569 27.0123C108.843 28.2899 108.884 28.1672 109.088 28.3205C110.132 29.1075 112.179 29.3017 113.346 28.7294C114.001 28.4125 114.728 27.6766 115.097 26.9612C115.383 26.3786 120.071 15.6263 120.143 15.3503C120.194 15.1868 120.112 15.1766 119.088 15.197L117.983 15.2277L116.397 18.9276C115.516 20.9616 114.779 22.6071 114.759 22.5765C114.728 22.5458 114.001 20.8798 113.152 18.8765L111.596 15.2277L110.409 15.197C109.672 15.1766 109.221 15.2073 109.221 15.2686Z" fill="currentColor"/>
</svg>
